<?xml version="1.0" encoding="utf-8"?>
<!-- Generator: Adobe Illustrator 23.0.0, SVG Export Plug-In . SVG Version: 6.00 Build 0)  -->
<svg version="1.1" id="Слой_1" xmlns="http://www.w3.org/2000/svg" xmlns:xlink="http://www.w3.org/1999/xlink" x="0px" y="0px"
	 viewBox="0 0 432.22 100" style="enable-background:new 0 0 432.22 100;" xml:space="preserve">
<style type="text/css">
	.st0{fill-rule:evenodd;clip-rule:evenodd;fill:#ABA8A8;}
	.st1{fill-rule:evenodd;clip-rule:evenodd;fill:#0061A6;}
	.st2{fill-rule:evenodd;clip-rule:evenodd;fill:#FCDB00;}
</style>
<g>
	<path class="st0" d="M403.29,38.96h28.93l-8.44,34.76h-31.42l-25.63-0.08h-0.01c-1.89-0.01-3.48-0.16-4.75-0.51
		c-1.12-0.3-1.98-0.76-2.57-1.41c-0.42-0.48-0.28-1.92,0.04-3.44c0.39-1.83,1.08-3.7,1.42-4.61c0.8-2.09,1.7-4.28,2.73-6.46
		c1.02-2.18,2.17-4.32,3.43-6.29c1.35-2.12,2.91-4.08,4.75-5.71c1.8-1.62,3.88-2.94,6.3-3.84c1.63-0.61,3.35-1.14,5.08-1.53
		c0.54-0.12,1.04-0.23,1.51-0.31c0.48-0.09,0.97-0.16,1.5-0.24c1.35-0.19,2.69-0.3,3.94-0.3l11.86-0.01L403.29,38.96L403.29,38.96z
		 M311.91,73.72h-13.99l18.43-18.43L311.91,73.72z M341.83,38.96h9.57c-4.06,4.59-7.28,9.61-9.64,15.06
		c-0.67,1.52-1.26,3.07-1.79,4.66c-0.53,1.58-1,3.19-1.39,4.84v0.01l-0.01,0.02c-0.89,3.71-1.27,7.1-1.12,10.18h-4L341.83,38.96z
		 M304.39,38.96h2.29l-3.03,3.05L304.39,38.96z M279.63,38.96h3.21l-8.38,34.76h-30.48c3.64-1.63,7.01-3.31,10.09-5.05
		c5.22-2.95,9.68-6.08,13.4-9.45c3.12-2.84,5.66-5.78,7.62-8.77c1.98-3.03,3.35-6.16,4.12-9.35
		C279.38,40.38,279.52,39.67,279.63,38.96z M248.9,38.96h3.49c1.01,0.04,1.88,0.14,2.58,0.29c0.2,0.04,0.37,0.09,0.52,0.13
		c0.13,0.03,0.27,0.09,0.41,0.14l0.14,0.05c0.67,0.29,1.02,0.75,1.07,1.38c0.01,0.17,0.01,0.35-0.01,0.53
		c-0.02,0.19-0.06,0.41-0.12,0.67v0.01c-0.4,1.66-1.72,3.5-3.95,5.5c-0.42,0.38-0.92,0.79-1.49,1.24c-0.55,0.43-1.13,0.86-1.73,1.29
		l-0.02,0.02h-0.01c-2.18,1.56-4.6,3.03-7.26,4.39l-0.15,0.08L246.14,39L248.9,38.96z M218.3,38.96h6.39l-8.44,34.76h-11.89
		c4.06-4.59,7.28-9.61,9.64-15.05c0.66-1.52,1.26-3.07,1.79-4.66c0.53-1.58,0.99-3.2,1.39-4.85v-0.02
		C218.07,45.44,218.45,42.04,218.3,38.96z M135.31,38.96h25.6l2.12,0.01l26.01,0.08c1.89,0.01,3.48,0.16,4.76,0.51
		c1.12,0.3,1.98,0.75,2.56,1.4c0.43,0.48,0.28,1.92-0.04,3.43c-0.31,1.46-0.8,2.93-1.16,3.93h-20.76l-0.31,1.27L171,62.23
		l-0.49,2.05l2.11,0.01l14.31,0.03c-0.89,1.15-1.87,2.21-2.95,3.17c-1.8,1.62-3.88,2.95-6.29,3.85c-1.63,0.61-3.35,1.13-5.08,1.53
		c-0.54,0.12-1.04,0.22-1.51,0.32c-0.48,0.09-0.98,0.16-1.5,0.24c-1.36,0.19-2.69,0.29-3.95,0.29l-10.54,0.01h-43.1l19.92-19.91
		V53.8c2.78-2.79,4.18-6.47,4.18-10.14C136.09,42.07,135.83,40.48,135.31,38.96z"/>
	<path class="st1" d="M359.31,63.09c-0.72,1.89-2.89,7.81-1.14,9.75c1.61,1.79,4.47,2.44,8.54,2.46l26.02,0.08l-3.78,15.58h-27.6
		c-9.59,0-16.13-2.74-19.58-8.26c-2.95-4.71-3.47-10.98-1.6-18.77c2.76-11.44,8.77-21.25,18.03-29.39
		c9.7-8.52,20.29-12.8,31.73-12.8l15.81-0.01l-3.78,15.58l-11.86,0.02c-4.07,0-8.56,0.96-12.62,2.48
		c-5.25,1.96-9.01,5.73-11.88,10.22C363,54.14,360.93,58.83,359.31,63.09z"/>
	<path class="st1" d="M239.92,57.67c4.1-1.86,7.7-3.9,10.81-6.12c4.57-3.22,7.19-6.22,7.86-9.01c0.54-2.22-0.1-3.72-1.92-4.51
		c-1.17-0.5-3.08-0.77-5.72-0.75l-6.12,0.05L239.92,57.67z M230.59,21.72h28.84c7.86,0,13.29,1.97,16.28,5.91
		c2.55,3.36,3.18,7.72,1.88,13.09c-1.45,6.01-5.19,11.77-11.24,17.27c-7.24,6.58-17.43,12.23-30.68,17.38l-3.76,15.58h-18.13
		L230.59,21.72z"/>
	<polygon class="st1" points="288.7,21.73 306.83,21.73 300.65,47.39 326.14,21.73 344.27,21.73 327.59,90.96 309.46,90.96 
		319.34,49.94 293.9,75.38 290.15,90.96 272.02,90.96 	"/>
	<path class="st1" d="M196.45,49.6c0.7-1.9,2.89-7.81,1.14-9.75c-1.61-1.79-4.47-2.44-8.55-2.47l-26.01-0.08l3.78-15.58h27.6
		c9.58,0,16.13,2.75,19.58,8.26c2.95,4.72,3.47,10.98,1.59,18.78c-2.76,11.44-8.76,21.25-18.03,29.39
		c-9.69,8.52-20.28,12.8-31.73,12.8h-15.82l3.79-15.58l11.85-0.01c4.08-0.01,8.57-0.97,12.63-2.48c5.24-1.97,8.98-5.75,11.88-10.22
		l-17.52-0.04l3.07-12.63h20.61L196.45,49.6z"/>
	<path class="st2" d="M60.87,24.62L81.78,3.7c4.94-4.93,13.01-4.93,17.96,0l30.98,30.98c4.93,4.94,4.93,13.02,0,17.96L99.74,83.61
		c-4.94,4.93-13.02,4.93-17.96,0l-8.23-8.24h-47.1l3.09-12.69h69.17l3.08-12.68l-69.17-0.02l3.08-12.68h69.18l3.08-12.69H60.87z"/>
	<path class="st1" d="M73.56,75.38L52.63,96.3c-4.93,4.93-13.01,4.93-17.95,0L3.71,65.31c-4.94-4.93-4.94-13.01,0-17.95l30.98-30.98
		c4.93-4.94,13.01-4.94,17.95,0l8.24,8.24h47.09l-3.08,12.69H35.7l-3.08,12.68L101.79,50l-3.08,12.69H29.55l-3.09,12.69H73.56z"/>
</g>
</svg>
